<svg width="36" height="36" viewBox="0 0 36 36"  xmlns="http://www.w3.org/2000/svg">
<g clip-path="url(#clip0_43_422)">
<path d="M18.8488 -0.0251212C16.892 -0.0263453 14.9351 -0.0228841 12.9784 -0.0249041C10.6643 0.00131371 8.34551 -0.0726649 6.03437 0.0501119C5.59634 0.188292 5.33847 0.651868 4.98121 0.922907C3.33424 2.55191 1.6522 4.1542 0.104732 5.87788C-0.050667 6.9242 0.0441156 8.00102 0.00449279 9.05845C-0.00198873 16.7395 -0.0285065 24.4211 0.0323248 32.102C0.103126 32.5271 -0.1049 33.1737 0.364787 33.4222C1.02769 33.6269 1.77589 33.4047 2.41979 33.6038C2.56777 34.2893 2.39316 35.0217 2.61342 35.6894C2.91582 36.1359 3.54062 35.8886 3.98643 35.9684C11.7801 36.0423 19.5752 36.0459 27.3688 35.9696C27.773 35.9039 28.4234 36.128 28.6264 35.6378C28.7561 34.8122 28.6522 33.9646 28.6867 33.1312C28.4349 33.0759 27.8382 32.9574 27.699 33.1986C27.6576 33.745 27.7785 34.3323 27.6319 34.8562C19.9349 34.9195 12.2263 34.8985 4.52502 34.8712C4.22257 34.8334 3.84555 34.9294 3.58004 34.8212C3.53238 34.42 3.49291 33.9681 3.59809 33.5838C5.48899 33.4967 7.39693 33.5478 9.29409 33.5258C11.942 33.5238 14.59 33.5248 17.2378 33.524C17.2993 33.2474 17.4056 32.6333 17.1703 32.4688C11.9569 32.4503 6.7381 32.5093 1.52797 32.4297C1.31504 32.428 1.03875 32.4411 1.14637 32.1327C1.09139 23.6275 1.1221 15.1218 1.11375 6.61641C2.77689 6.47207 4.46641 6.61037 6.1345 6.47986C6.61841 6.38471 6.51714 5.77139 6.54589 5.41104C6.5802 3.97883 6.58707 2.54163 6.62547 1.11219C12.6203 1.10267 18.6159 1.06581 24.6104 1.13187C24.8116 1.17388 25.1162 1.08089 25.2668 1.22797C25.3972 3.02689 25.3107 4.846 25.3394 6.65294C25.3395 8.58015 25.3393 10.5074 25.3394 12.4346C25.591 12.4899 26.1867 12.6082 26.3265 12.3674C26.3379 9.43087 26.3493 6.49426 26.3607 3.55771H27.6654C27.6769 6.94365 27.6883 10.3297 27.6998 13.7156C27.9515 13.7706 28.5477 13.8895 28.6867 13.6481C28.6669 10.0878 28.7297 6.52578 28.646 2.96639C28.679 2.7245 28.538 2.49836 28.2723 2.52477C27.6498 2.43176 26.9738 2.51746 26.3777 2.36811C26.2386 1.69924 26.4427 0.980984 26.2409 0.323649C25.8931 -0.155481 25.2161 0.0785869 24.7191 0.00281954C22.7625 -0.0180484 20.8057 -0.0238974 18.8488 -0.0251212ZM5.39901 2.09C5.60738 2.27211 5.43467 2.88229 5.49849 3.22677C5.50018 3.3833 5.50181 3.53979 5.50349 3.69633C5.48596 4.27327 5.55688 4.87153 5.44989 5.43518C4.42806 5.56594 3.3762 5.48772 2.34651 5.47573C2.18991 5.49904 1.9751 5.4475 2.14223 5.27329C3.17001 4.15716 4.24487 3.07308 5.39901 2.09ZM9.08045 3.07554L9.03283 3.12316L9.02479 3.13121C9.07522 3.42996 8.9343 3.83044 9.11742 4.08587C11.8226 4.16618 14.5313 4.116 17.2378 4.13077C17.2993 3.85418 17.4056 3.2401 17.1703 3.07554H9.08045ZM16.174 5.43496C16.1486 5.43474 16.1204 5.43795 16.0935 5.44398C16.0878 5.44322 16.08 5.44448 16.0744 5.44354C15.8987 5.47595 15.6743 5.40431 15.5176 5.49029C15.3016 5.48066 15.0578 5.49175 15.0961 5.76687C15.1523 6.01733 14.9204 6.56499 15.2828 6.55769H17.2378C17.3391 6.27711 17.3116 5.88953 17.2543 5.57672C17.1438 5.4857 17.0004 5.47563 16.8499 5.48463C16.7728 5.45127 16.6827 5.43464 16.5803 5.43571C16.5208 5.43633 16.4598 5.44094 16.3991 5.44473C16.3421 5.44234 16.2841 5.44556 16.23 5.44321C16.215 5.4377 16.1955 5.43514 16.174 5.43496ZM9.08045 5.50247L9.03283 5.5502L9.02479 5.55825C9.12242 5.86434 8.78751 6.60762 9.28278 6.5577H13.7322C13.7936 6.28111 13.9001 5.66703 13.6648 5.50247H9.08045ZM11.577 7.86059C9.15355 7.88269 6.72441 7.83584 4.30454 7.93462C4.19947 8.02631 3.99489 7.97391 3.95044 8.13108C3.62899 8.28261 3.36902 8.61687 3.22768 8.93962C3.04738 9.27612 3.17201 9.74351 3.12331 10.1305C3.0832 16.4192 3.06649 22.7089 3.13701 28.9974C3.1112 29.1842 3.15717 29.3359 3.22822 29.4777C3.39724 29.9628 3.90434 30.2448 4.3277 30.481C7.4625 30.4841 10.5974 30.4873 13.7322 30.4903C13.7936 30.2137 13.9001 29.5996 13.6648 29.4351C11.7041 29.4149 9.72452 29.4799 7.77485 29.3846C7.68082 28.8045 7.69723 28.1875 7.77811 27.6032C8.69712 27.4622 9.67142 27.5544 10.6109 27.524H12.4513C12.5127 27.2474 12.6192 26.6334 12.3839 26.4688C10.8522 26.437 9.30868 26.5361 7.78409 26.4023C7.68701 25.8201 7.69306 25.2048 7.76746 24.6212C8.33087 24.5166 8.96648 24.5875 9.55545 24.5584C10.3409 24.5569 11.1264 24.5581 11.9119 24.5577C11.9734 24.2812 12.0798 23.6671 11.8445 23.5025C10.495 23.4717 9.12401 23.5675 7.78724 23.4377C7.71059 22.8307 7.67051 22.1856 7.76941 21.5861C8.91605 21.4564 10.0886 21.5574 11.245 21.524C11.5853 21.4783 12.2774 21.7201 12.1025 21.1312C12.2058 20.6437 12.049 20.3137 11.5075 20.4688C10.2781 20.4343 9.03242 20.5408 7.81279 20.3964C7.62813 19.9905 7.78322 19.4848 7.74365 19.0417C7.5605 18.4272 8.16006 18.6067 8.56197 18.5857C10.0608 18.5759 11.5596 18.566 13.0584 18.5561C13.1569 18.2394 13.1395 17.7666 13.0662 17.4445C11.3017 17.4147 9.52296 17.4186 7.753 17.4018C7.78971 16.8105 7.63211 16.1741 7.79692 15.6084C8.86891 15.4699 9.99212 15.5554 11.0837 15.5246C12.5508 15.5234 14.0179 15.5242 15.485 15.524C15.5464 15.2474 15.6529 14.6334 15.4176 14.4688C12.8985 14.4437 10.3624 14.5221 7.85345 14.4198C7.62041 14.3984 7.78408 14.0327 7.72582 13.8796C7.74506 13.4422 7.65815 12.9679 7.79605 12.5543C10.3558 12.4429 12.928 12.5327 15.4924 12.5169C16.1355 12.5192 16.7787 12.5216 17.4219 12.5239C17.3713 12.9406 17.5121 13.2426 17.9871 13.097C18.3862 13.1832 18.6882 13.0728 18.5971 12.6243C18.7954 12.3894 19.3961 12.5837 19.7503 12.5151C20.9354 12.5062 22.1205 12.4974 23.3056 12.4886C23.4376 12.045 23.3219 11.4991 23.3609 11.0171C23.3255 10.3704 23.4223 9.69126 23.2659 9.06204C23.1083 8.68438 22.8328 8.29629 22.4831 8.10575C22.4021 7.94273 22.1594 8.02382 22.0446 7.92114C18.5568 7.83745 15.0657 7.86917 11.577 7.86059ZM4.80084 8.97746C5.05577 8.97271 5.3381 9.02541 5.54568 8.98474C5.89687 9.02241 6.31365 8.91661 6.63026 9.06541C6.66771 9.83043 6.70282 10.626 6.61319 11.3797C5.81952 11.4813 4.99187 11.4426 4.19452 11.3796C4.10414 10.7102 4.14924 9.99462 4.22039 9.31481C4.31838 9.04437 4.54592 8.9822 4.80084 8.97746ZM17.454 8.98398L17.4364 10.1918C17.3865 10.5733 17.5119 11.1321 17.3515 11.4018C14.1605 11.3977 10.9639 11.4601 7.77615 11.3832C7.67 10.6051 7.76962 9.80489 7.75332 9.01822C10.9868 9.00682 14.2205 8.99539 17.454 8.98398ZM18.5744 8.98474H20.2286H21.9155C22.3295 9.21525 22.2421 9.6484 22.2285 10.0518C22.2208 10.5019 22.2132 10.9518 22.2055 11.4019C21.0072 11.4036 19.8076 11.4511 18.61 11.3995C18.5514 10.598 18.5832 9.78968 18.5744 8.98474ZM6.26061 12.472C6.41647 12.4771 6.54762 12.5124 6.61743 12.6225C6.66812 13.2084 6.7118 13.8378 6.59818 14.4174C5.85638 14.5217 5.07891 14.4638 4.32792 14.4439C4.04392 14.4552 4.2063 14.0541 4.14549 13.9011C4.15719 13.4531 4.11604 12.975 4.228 12.5482C4.62789 12.4713 5.03911 12.5023 5.44533 12.4903C5.67251 12.5386 6.00085 12.4635 6.26061 12.472ZM23.1405 13.8072C22.3667 13.8519 21.554 13.7967 20.8085 14.0189C20.5744 14.0858 20.3118 14.0452 20.1066 14.1886C19.8385 14.1681 19.6527 14.3598 19.3921 14.3675C19.273 14.4952 19.0495 14.443 18.9718 14.6027C18.2961 14.8148 17.7074 15.2645 17.116 15.6486C16.8686 15.78 16.6803 16.0327 16.4503 16.1606C15.7879 16.684 15.3266 17.4348 14.7681 18.0569C14.7014 18.331 14.4539 18.5448 14.3643 18.825C14.1799 19.1261 14.0012 19.4642 13.9224 19.7955C13.7348 19.8894 13.8496 20.1741 13.7104 20.3215C12.84 22.9095 13.1651 25.8398 14.5199 28.2022C15.2171 29.3853 16.2314 30.3678 17.2823 31.2256C17.6415 31.3707 17.9427 31.6688 18.3145 31.8134C19.0576 32.2176 19.8797 32.4721 20.6788 32.7105C20.9515 32.8339 21.2816 32.7442 21.5521 32.8773C22.3987 32.9196 23.2652 32.9686 24.104 32.8466C24.3704 32.7123 24.7535 32.8659 24.9737 32.6487C25.8781 32.482 26.7464 32.0741 27.5366 31.6372C27.7185 31.6636 27.7264 31.4549 27.9019 31.4613C28.1015 31.3627 28.2943 31.076 28.5223 31.1286C30.1279 32.5826 31.5458 34.2416 33.2202 35.6197C33.4412 35.8293 33.7438 35.8653 34.0163 35.9334C34.1522 36.1073 34.3254 35.7988 34.5048 35.8808C35.1823 35.7401 35.7872 35.1347 35.8995 34.4477C35.8341 34.2646 36.1361 34.1395 35.9389 33.9862C35.8803 33.2373 35.2226 32.7444 34.7675 32.2104C33.5462 30.8994 32.1891 29.7129 31.035 28.343C30.948 28.2404 31.1798 28.1502 31.1376 27.995C31.2963 27.9366 31.2059 27.7175 31.3594 27.652C31.3572 27.5052 31.4355 27.4494 31.5118 27.3499C31.5579 27.0097 31.8073 26.733 31.8312 26.3844C32.0455 26.0015 32.0149 25.553 32.1843 25.1635C32.3114 23.965 32.312 22.744 32.1839 21.5456C32.083 21.3168 32.0612 21.0769 32.0094 20.8343C31.8713 20.6659 31.952 20.4033 31.7981 20.2369C31.8212 20.0818 31.7311 19.9759 31.6575 19.875C31.6697 19.6568 31.4998 19.5128 31.48 19.3039C31.3308 19.2448 31.4164 19.0191 31.2571 18.9636C31.2867 18.8248 31.1739 18.75 31.1107 18.6804C30.6999 17.8862 30.1005 17.1995 29.499 16.5418C29.0766 16.1405 28.6051 15.7826 28.1457 15.4363C27.9896 15.2654 27.6977 15.2175 27.5146 15.0504C27.3245 14.9016 27.05 14.8054 26.863 14.7004C26.7247 14.5258 26.4174 14.6014 26.2556 14.4201C26.0527 14.3337 25.84 14.3273 25.6549 14.2115C25.3798 14.2298 25.1836 14.0117 24.9007 14.0538C24.5602 13.8575 24.1294 13.9927 23.774 13.8298C23.564 13.8047 23.3517 13.8074 23.1405 13.8072ZM23.1564 14.9385C23.551 14.929 23.9198 15.1028 24.3252 15.0633C24.5497 15.0985 24.7405 15.2257 24.9817 15.205C25.1699 15.3549 25.4423 15.2797 25.6266 15.4347C25.7838 15.4382 25.8824 15.4855 25.9854 15.585C26.5093 15.7001 26.9859 16.0177 27.4044 16.3272C27.6885 16.3935 27.8507 16.6936 28.1227 16.7959C29.0498 17.5924 29.8923 18.5499 30.3941 19.6706C30.3902 19.8271 30.5876 19.8388 30.5462 20.0141C30.7142 20.1196 30.62 20.3513 30.7671 20.482C30.7894 20.6464 30.8326 20.7987 30.924 20.922C30.8964 21.1461 30.9923 21.3311 31.0646 21.5149C31.0474 21.8985 31.2851 22.2258 31.2296 22.614C31.2118 23.3266 31.311 24.069 31.1546 24.7612C31.0221 25.0232 31.115 25.3447 30.9473 25.5906C30.9671 25.8554 30.7705 26.0371 30.7673 26.2975C30.6129 26.4172 30.7295 26.6649 30.5458 26.7486C30.4134 27.2301 30.1203 27.6706 29.8576 28.0778C29.6365 28.4742 29.3035 28.8241 29.0004 29.1674C28.4199 29.7631 27.7684 30.3385 27.0354 30.712C26.9146 30.9296 26.5615 30.8427 26.4537 31.0493C26.0925 31.1038 25.7984 31.3819 25.4347 31.4536C25.2129 31.5035 25 31.5567 24.7966 31.6491C24.3733 31.6596 23.9886 31.8467 23.5568 31.8162C23.1851 31.7982 22.8236 31.972 22.4664 31.8464C21.3983 31.7803 20.3346 31.5816 19.3669 31.1037C18.0598 30.5438 16.9161 29.6249 16.0542 28.49C15.747 28.1238 15.5645 27.7048 15.3208 27.3025C15.1443 26.9471 14.9453 26.5978 14.8828 26.2067C14.3587 25.0399 14.2786 23.7098 14.3805 22.4579C14.4823 21.9669 14.5446 21.4293 14.7204 20.9747C14.8542 20.8357 14.746 20.5964 14.9183 20.4853C14.9996 19.9273 15.3626 19.4474 15.6121 18.9482C16.2046 17.9959 17.0125 17.1802 17.8906 16.5017C18.1922 16.3807 18.4633 16.0909 18.7861 15.9598C19.213 15.7655 19.6232 15.4962 20.0833 15.4123C20.2052 15.2359 20.5058 15.3836 20.6554 15.2139C20.8665 15.1955 21.0697 15.1657 21.2479 15.0679C21.8791 14.9721 22.5206 14.9465 23.1564 14.9385ZM6.01632 15.5207C6.21831 15.5151 6.41642 15.5246 6.59199 15.6083C6.6863 16.1842 6.69869 16.8022 6.61797 17.3765C5.81871 17.4909 4.98109 17.4305 4.17614 17.3972C4.12953 16.7971 4.1127 16.1642 4.22724 15.5821C4.61836 15.506 5.01983 15.5353 5.4175 15.524C5.60846 15.547 5.81432 15.5263 6.01632 15.5207ZM22.52 16.2902C22.1493 16.3162 21.723 16.2441 21.4011 16.4228C20.5906 16.5404 19.8412 16.929 19.1243 17.3008C18.997 17.3172 19.0182 17.4797 18.8692 17.4648C18.1528 17.9199 17.5612 18.5673 17.0202 19.2286C16.8343 19.4203 16.7748 19.7227 16.5924 19.9331C16.4887 20.0742 16.4807 20.26 16.3296 20.3406C16.3379 20.5398 16.1203 20.6134 16.1696 20.833C16.1391 20.9769 15.9879 21.0675 16.0255 21.2492C15.8593 21.4694 15.9271 21.7698 15.8036 22.0127C15.6501 23.0332 15.6187 24.1143 15.9001 25.1083C15.8717 25.3597 16.0735 25.5244 16.0686 25.7714C16.2769 26.2086 16.4129 26.6669 16.722 27.0584C16.9974 27.5737 17.3788 28.0125 17.7786 28.4329C18.2519 28.8322 18.7344 29.2874 19.273 29.5703C19.3312 29.7291 19.5503 29.6385 19.6157 29.7922C19.8069 29.7685 19.8491 29.9781 20.0405 29.9551C20.1839 30.0691 20.374 30.0752 20.5361 30.1384C20.7168 30.2617 20.9603 30.2024 21.1385 30.3348C21.6002 30.3725 22.0407 30.5273 22.5139 30.4856C23.0664 30.4773 23.6456 30.5367 24.1695 30.3606C24.4891 30.4075 24.7244 30.1953 25.0311 30.1921C25.4953 30.013 25.9654 29.7917 26.3847 29.5463C26.7989 29.4278 27.0789 29.0258 27.4484 28.8125C27.8304 28.4909 28.2084 28.1429 28.4651 27.7192C28.8287 27.2934 29.0409 26.7514 29.3495 26.3024C29.473 26.186 29.3877 25.98 29.5405 25.887C29.5479 25.6237 29.7474 25.4308 29.7086 25.1536C29.8681 24.9011 29.7949 24.5784 29.8853 24.3042C30.0223 23.7481 29.9772 23.137 29.9201 22.5669C29.75 22.3111 29.9121 21.9213 29.7089 21.6776C29.722 21.475 29.6737 21.2837 29.5678 21.1333C29.5964 20.9778 29.5155 20.8485 29.4281 20.7613C29.2989 20.3835 29.0693 20.017 28.8952 19.6757C28.753 19.6405 28.7868 19.402 28.6471 19.3247C28.1295 18.5625 27.4313 17.9166 26.6691 17.3943C26.47 17.2701 26.2378 17.2009 26.0896 17.0364C25.4335 16.825 24.8041 16.4657 24.1042 16.3998C23.8398 16.2192 23.4364 16.3387 23.1249 16.2909C22.9232 16.2885 22.7216 16.289 22.52 16.2902ZM22.7589 17.336C23.7107 17.3475 24.7259 17.4945 25.5357 18.0136C25.7718 18.0349 25.9362 18.283 26.1576 18.3168C26.7173 18.7618 27.2967 19.2215 27.6992 19.8261C27.8024 20.0637 28.0422 20.2474 28.1514 20.4994C28.3207 20.7874 28.4051 21.1211 28.5584 21.4214C28.6032 21.5562 28.5775 21.8308 28.3945 21.6618C28.1375 21.5683 27.9746 21.3188 27.7404 21.215C27.584 21.2434 27.5652 21.0433 27.4056 21.0585C27.3571 20.8909 27.1265 20.9855 27.0619 20.8299C26.9151 20.8322 26.8593 20.7537 26.7598 20.6775C26.4288 20.6397 26.1623 20.3849 25.8249 20.3704C25.6575 20.207 25.3795 20.3107 25.2084 20.1497C23.5946 19.8333 21.8948 19.7942 20.2972 20.2018C20.1322 20.3033 19.889 20.2308 19.7653 20.3911C19.6164 20.3892 19.451 20.4134 19.3736 20.5353C18.8922 20.6427 18.4533 20.9272 18.0254 21.1676C17.8024 21.2271 17.6168 21.3902 17.4358 21.5447C17.2995 21.6301 16.9675 21.915 17.0285 21.546C17.2658 20.8117 17.6636 20.1276 18.1603 19.5386C18.4759 19.0451 18.9916 18.6793 19.4727 18.3489C19.6471 18.267 19.7434 18.1246 19.943 18.1207C20.2973 17.8053 20.8221 17.6847 21.2696 17.5233C21.7546 17.391 22.2599 17.3358 22.7589 17.336ZM5.96414 18.5684C6.17154 18.5993 6.45313 18.5202 6.62471 18.6394C6.66725 19.2183 6.71419 19.8349 6.58198 20.3977C6.02723 20.5478 5.41666 20.4331 4.84053 20.4645C4.6447 20.4215 4.32969 20.5249 4.19365 20.3549C4.11637 19.7722 4.18457 19.179 4.17995 18.5906C4.77465 18.5832 5.36937 18.5694 5.96414 18.5684ZM22.8545 20.9173C23.3406 20.8978 23.8098 21.1298 24.1817 21.3874C24.5786 21.5684 24.8463 21.9897 25.0485 22.3671C25.6057 23.4983 25.1098 24.968 24.0011 25.5561C23.7668 25.731 23.4617 25.7011 23.2198 25.8333C22.8388 25.8843 22.4444 25.8898 22.0918 25.7286C21.5307 25.6194 21.0687 25.1795 20.7399 24.7313C20.3496 24.1905 20.3809 23.4693 20.4043 22.8439C20.5813 22.1929 21.0224 21.554 21.6415 21.2554C21.815 21.236 21.8907 21.0369 22.0925 21.0409C22.3407 20.9733 22.5966 20.9223 22.8545 20.9173ZM6.01828 21.5203C6.22408 21.5155 6.4266 21.5233 6.61112 21.5926C6.68915 22.2204 6.69529 22.8796 6.59101 23.5025C5.80351 23.464 4.97548 23.5802 4.21061 23.4279C4.13943 22.8206 4.09869 22.1851 4.19484 21.5826C4.58485 21.486 5.0045 21.5435 5.40586 21.524C5.60343 21.5427 5.81247 21.5252 6.01828 21.5203ZM19.6358 21.5244C19.7988 21.8795 19.3503 22.1935 19.4022 22.5671C19.1936 23.0208 19.2612 23.5806 19.3316 24.0671C19.4687 24.2378 19.341 24.5367 19.5378 24.6625C19.528 24.8723 19.7771 25.0235 19.6492 25.2459C19.4583 25.2586 19.3258 25.1691 19.2069 25.0592C18.8175 24.9621 18.5018 24.666 18.1847 24.4517C17.8531 24.3522 17.64 24.0062 17.3393 23.8314C17.1131 23.6721 16.8708 23.3134 17.1792 23.102C17.6482 22.6822 18.1537 22.273 18.7073 21.9949C18.941 21.7606 19.2957 21.7244 19.5697 21.5878C19.5875 21.5532 19.5789 21.5153 19.6358 21.5244ZM25.9605 21.5288C26.2032 21.6189 26.4584 21.7687 26.6957 21.8256C26.8546 21.9893 27.1112 22.0268 27.2587 22.1928C27.6432 22.3239 27.9043 22.7034 28.2406 22.9273C28.3573 23.0872 28.6878 23.2316 28.6585 23.4476C28.3821 23.7928 28.0248 24.07 27.6646 24.3058C27.5891 24.4521 27.3915 24.4405 27.3333 24.5802C27.1057 24.6403 26.9436 24.866 26.7077 24.9441C26.4627 25.0341 26.1789 25.2894 25.9137 25.2027C25.941 24.8841 26.1921 24.6035 26.221 24.2855C26.4044 24.0264 26.2848 23.6282 26.3267 23.3218C26.3107 23.019 26.3624 22.6681 26.1969 22.4142C26.2378 22.1231 25.9498 21.9716 25.9362 21.684C25.9407 21.655 25.8851 21.5145 25.9605 21.5288ZM22.8302 22.224C22.0733 22.2651 21.4346 23.1546 21.8163 23.8601C21.9919 24.2724 22.4088 24.5478 22.8638 24.4882C23.3318 24.5703 23.681 24.1486 23.8711 23.7799C23.9027 23.4978 23.947 23.1674 23.8277 22.9061C23.6558 22.6505 23.4418 22.3526 23.0916 22.3438C23.0783 22.2236 22.9209 22.2244 22.8302 22.224ZM5.04111 24.5534C5.55974 24.5691 6.09802 24.5355 6.60275 24.6324C6.67222 25.2199 6.72206 25.8408 6.59851 26.4176C5.81196 26.5205 4.99554 26.4514 4.20169 26.4287C4.13026 25.833 4.10319 25.2017 4.20191 24.6083C4.46465 24.5309 4.76689 24.5699 5.04111 24.5534ZM28.5114 25.0489C28.6716 25.4118 28.3603 25.7854 28.2303 26.1194C28.0488 26.4813 27.7933 26.8112 27.5665 27.1304C27.2172 27.6792 26.6693 28.1056 26.1387 28.4789C25.8663 28.5906 25.6734 28.8394 25.3771 28.8664C25.2753 28.9992 25.058 28.9283 24.981 29.081C24.8093 29.0791 24.6538 29.1314 24.5279 29.2219C24.1695 29.2092 23.8703 29.4104 23.5055 29.3733C22.8529 29.369 22.1637 29.454 21.5295 29.2899C21.3069 29.2132 21.0635 29.2439 20.8684 29.1039C20.3286 29.0218 19.8566 28.6787 19.3998 28.3952C18.6166 27.8423 17.9316 27.1453 17.4832 26.2956C17.3921 26.2167 17.4457 26.022 17.3023 25.9753C17.3256 25.7719 17.1 25.7179 17.146 25.5085C17.0826 25.3891 16.9282 25.1413 17.0926 25.0615C17.2542 25.1426 17.4489 25.2529 17.5918 25.3273C17.973 25.6949 18.5283 25.8447 18.9506 26.1587C19.146 26.1371 19.2035 26.3617 19.4158 26.3152C19.5786 26.4084 19.7589 26.4531 19.9481 26.4734C20.0705 26.6626 20.3731 26.5068 20.5082 26.6832C21.0327 26.732 21.537 26.8892 22.0729 26.8879C22.9732 26.9369 23.9009 26.9254 24.7746 26.7164C25.0653 26.7555 25.2766 26.5441 25.5622 26.5575C25.74 26.4246 25.9802 26.4612 26.1545 26.3208C26.2908 26.3279 26.428 26.2845 26.4925 26.1767C27.0178 26.0207 27.498 25.7039 27.9556 25.4037C28.1415 25.2849 28.3251 25.1696 28.5114 25.0489ZM6.01806 27.5215C6.21915 27.5167 6.4165 27.527 6.59231 27.6085C6.68434 28.1855 6.70252 28.8069 6.61525 29.3806C5.95072 29.472 5.25849 29.4301 4.5896 29.3729C4.09584 29.3301 4.18551 28.713 4.15984 28.3693C4.18913 28.1209 4.06952 27.7759 4.22007 27.5721C4.61884 27.5261 5.01939 27.5299 5.42108 27.5251C5.61211 27.5462 5.81697 27.5263 6.01806 27.5215ZM30.3305 29.3685C31.1219 29.981 31.8001 30.7596 32.5333 31.4506C33.2934 32.2511 34.1434 32.9822 34.8208 33.8534C35.1711 34.4074 34.3096 35.172 33.7946 34.772C32.2999 33.411 30.8856 31.9587 29.5164 30.4717C29.2918 30.2693 29.6921 30.0364 29.7931 29.8737C29.9863 29.7357 30.0914 29.4253 30.3305 29.3685Z" />
</g>
<defs>
<clipPath id="clip0_43_422">
<rect width="36" height="36" />
</clipPath>
</defs>
</svg>
