<svg width="27" height="26" viewBox="0 0 27 26" fill="none" xmlns="http://www.w3.org/2000/svg">
<g clip-path="url(#clip0_43_458)">
<path d="M3.46 0.00352718C3.33915 0.0180933 3.22981 0.0738646 3.11754 0.101316C2.47744 0.193472 1.86453 0.493361 1.36 0.894395C0.698502 1.4425 0.253832 2.24312 0.103561 3.08467C0.0737532 3.28546 -0.025165 3.47627 0.0067597 3.69363C-0.0192802 3.89497 0.054564 4.07652 0.102771 4.25814C0.184143 4.72655 0.344949 5.20249 0.609594 5.59874C0.647125 5.68277 0.681784 5.77245 0.768823 5.82919C1.10158 6.34542 1.63831 6.70174 2.16177 7.00473C2.28862 7.07625 2.42747 7.06932 2.52478 7.16988C2.83616 7.22144 3.13982 7.32713 3.46454 7.32565C3.87829 7.35497 4.30143 7.30836 4.69313 7.18806C4.88003 7.21928 4.96331 7.0562 5.13239 7.03041C5.423 6.90723 5.66826 6.70279 5.94828 6.56191C6.5147 7.06526 7.05315 7.60435 7.56101 8.16862C7.25629 8.57603 6.90088 8.96278 6.68506 9.41785C6.57582 9.48303 6.62341 9.627 6.51744 9.69531C6.51538 9.82485 6.38162 9.87577 6.38221 10.0177C6.20026 10.4582 6.04275 10.9037 5.89287 11.3583C5.89364 11.6731 5.74497 11.9542 5.76446 12.2728C5.8751 12.6663 5.45361 12.5227 5.20746 12.555C5.0594 12.5418 4.85762 12.6176 4.80425 12.4414C4.7194 12.3518 4.6998 12.1656 4.58151 12.0698C4.39478 11.8449 4.17439 11.6016 3.89392 11.5191C3.73252 11.4109 3.51689 11.4673 3.34739 11.3825C3.12846 11.4541 2.86599 11.3996 2.6686 11.5205C2.26576 11.6473 1.97053 12.0377 1.80786 12.4203C1.46631 13.1605 1.87943 14.0877 2.57219 14.4541C2.77971 14.5543 3.01607 14.5852 3.25257 14.5731C3.76207 14.641 4.23083 14.3636 4.54763 13.9837C4.66668 13.8747 4.73423 13.7028 4.78825 13.5745C4.85253 13.4786 4.90621 13.4212 5.03924 13.4485C5.27775 13.4499 5.51614 13.4594 5.75458 13.4647C5.74652 13.7868 5.78757 14.1047 5.87213 14.4091C5.88454 14.778 6.0569 15.1217 6.18248 15.4632C6.25691 15.6992 6.35634 15.9422 6.44809 16.1711C6.54072 16.2134 6.49519 16.3667 6.59972 16.4094C6.60043 16.5552 6.73443 16.6155 6.77277 16.7509C6.90884 16.8898 6.92998 17.0933 7.0937 17.2154C7.30951 17.3957 6.99769 17.5673 6.90089 17.7149C6.58666 18.0255 6.30575 18.396 5.92497 18.6245C5.7945 18.5656 5.66372 18.4464 5.52344 18.3739C4.50033 17.7951 3.19247 17.694 2.13184 18.2315C1.96977 18.2323 1.91098 18.3966 1.75501 18.4348C0.877948 18.9482 0.295558 19.8881 0.107117 20.8745C0.0816548 21.0775 -0.0265345 21.264 0.00606836 21.483C-0.0131643 21.6956 0.0362771 21.9012 0.102771 22.092C0.142118 22.502 0.339794 22.883 0.484938 23.2569C0.631208 23.3574 0.648289 23.5934 0.797863 23.714C1.12556 24.1035 1.53126 24.4594 1.9579 24.7136C2.03681 24.8062 2.16111 24.7777 2.23595 24.8749C2.39445 24.8891 2.51093 25.0187 2.6844 24.9935C3.10513 25.1686 3.59176 25.167 4.04258 25.1483C4.25423 25.0355 4.52773 25.1281 4.72622 24.9859C4.89338 24.9929 5.00465 24.8597 5.172 24.8639C5.35806 24.7115 5.6174 24.6243 5.80417 24.4462C6.11946 24.1908 6.4746 23.9414 6.66293 23.5784C6.85772 23.3278 6.99601 23.0065 7.11879 22.735C7.22518 22.6169 7.1744 22.4345 7.2551 22.2992C7.36992 21.7009 7.36393 21.0648 7.18852 20.4851C7.17994 20.3141 7.05961 20.1943 7.01586 20.0308C6.88417 19.7552 6.68379 19.4983 6.57186 19.2222C6.94448 18.8198 7.3383 18.4063 7.75521 18.0658C8.21907 18.4179 8.6467 18.8735 9.15487 19.1521C9.3377 19.2799 9.53919 19.3966 9.72956 19.502C10.2198 19.6538 10.67 19.964 11.1855 20.037C11.3121 20.0726 11.4336 20.1682 11.5889 20.1349C11.8144 20.1913 12.0431 20.2557 12.2857 20.2321C12.6583 20.2132 13.0415 20.4059 13.4079 20.2451C13.6232 20.3966 13.552 20.686 13.6726 20.8833C13.6877 21.0054 13.6612 21.1859 13.7791 21.2531C13.5843 21.5867 13.2052 21.8051 13.118 22.2083C12.9451 22.7628 13.0746 23.3975 13.5041 23.8019C13.6556 23.9722 13.8399 24.1397 14.0644 24.1836C14.3889 24.3094 14.7718 24.2486 15.1152 24.2261C15.6175 24.0618 16.0513 23.6136 16.1592 23.0932C16.272 22.6843 16.1941 22.232 15.9842 21.8651C15.7011 21.473 15.2831 21.1163 14.7736 21.1281C14.6642 21.029 14.4375 21.0659 14.463 20.8454C14.4576 20.6137 14.3147 20.4173 14.3651 20.1752C14.4556 20.1016 14.7017 20.1436 14.8365 20.0465C15.3034 19.8913 15.761 19.7353 16.2058 19.5237C16.3473 19.5147 16.3926 19.3846 16.5306 19.3814C16.6839 19.2381 16.9081 19.1455 17.1119 19.0665C17.393 19.0538 17.575 19.3642 17.7879 19.5296C19.9329 21.5831 21.9796 23.7435 24.1468 25.7753C24.3288 25.9145 24.572 25.8701 24.7461 26C24.8689 25.9882 24.9382 25.8639 25.0781 25.8885C25.603 25.7235 25.9879 25.1807 25.9041 24.6238C25.9193 24.1124 25.4332 23.8279 25.1439 23.4771C23.163 21.4109 21.0783 19.4441 19.1306 17.3482C19.0528 17.213 19.0377 17.0749 19.1354 16.9322C19.2216 16.7721 19.3016 16.6164 19.4015 16.4793C19.3977 16.3703 19.5298 16.3306 19.5187 16.2065C19.7166 15.7474 19.9471 15.2766 20.0469 14.7927C20.4113 14.8955 20.7819 15.0632 21.0761 15.3042C21.1026 15.4079 21.0585 15.5294 21.1358 15.6231C21.1443 15.8008 21.14 15.992 21.2658 16.1211C21.4249 16.4387 21.7052 16.7125 21.9982 16.8804C22.1112 16.8998 22.1993 17.0202 22.3422 16.9833C22.4972 17.0343 22.6514 17.1153 22.8273 17.0452C23.0301 17.0211 23.2633 16.9959 23.4208 16.8803C23.5802 16.8017 23.7321 16.7003 23.8677 16.5895C24.2461 16.1367 24.4313 15.514 24.2392 14.9403C24.1209 14.5118 23.7806 14.1383 23.3748 13.9701C23.2547 13.9059 23.1162 13.8445 22.9621 13.8601C22.6497 13.8532 22.3076 13.8226 22.0292 13.973C21.7177 14.0516 21.5926 14.4675 21.2731 14.497C21.0131 14.3061 20.6863 14.179 20.4123 14.0429C20.3583 13.94 20.1698 14.0194 20.2379 13.8515C20.2858 13.1551 20.3254 12.4352 20.1671 11.7523C20.1213 11.5567 20.15 11.3414 20.0348 11.1674C19.9389 10.6247 19.6434 10.1347 19.4535 9.63249C19.3666 9.55323 19.3406 9.38797 19.2328 9.29813C19.2332 9.19567 19.0784 9.13244 19.1831 9.05474C19.4628 8.75613 19.7196 8.39453 20.079 8.19528C20.2011 8.25997 20.3182 8.37515 20.4438 8.42218C20.578 8.56092 20.7809 8.56028 20.914 8.67821C21.0686 8.66563 21.1489 8.82767 21.317 8.79012C21.92 8.99492 22.607 8.97842 23.2239 8.82321C23.3439 8.76659 23.5119 8.79851 23.6032 8.69115C23.7584 8.69624 23.8613 8.57474 24.0113 8.56046C24.1386 8.42774 24.3581 8.38098 24.489 8.2267C24.8631 7.89142 25.268 7.52369 25.4885 7.07901C25.5979 6.99034 25.5596 6.82292 25.6618 6.71956C25.806 6.40661 25.8861 6.06305 25.9369 5.72952C26.0383 5.46548 26.0234 5.14331 25.9491 4.87224C25.8753 4.63806 25.8736 4.36441 25.7558 4.13279C25.5375 3.50813 25.1593 2.95596 24.657 2.52648C24.5261 2.42328 24.414 2.30309 24.2735 2.23608C24.1665 2.13609 23.9852 2.07101 23.8566 2.01946C23.7659 1.91841 23.6115 1.94978 23.5097 1.8551C22.7011 1.63373 21.8058 1.61071 21.0155 1.90538C20.9399 1.97123 20.7979 1.93432 20.7504 2.0403C20.6144 2.03003 20.5698 2.16884 20.4366 2.16318C20.2452 2.32641 20.0011 2.46433 19.8299 2.67159C19.348 3.1406 18.9428 3.72812 18.8053 4.38388C18.6597 4.70672 18.683 5.09687 18.6773 5.44929C18.6766 5.76617 18.7514 6.07498 18.8209 6.37503C18.8296 6.52368 18.9615 6.58156 18.9762 6.73349C19.0972 7.02688 19.2932 7.28288 19.4492 7.55215C19.216 7.86025 18.9337 8.14629 18.6305 8.38563C18.2755 8.02605 17.9621 7.6233 17.5421 7.33069C17.2436 7.08739 16.9286 6.84949 16.5892 6.6837C16.524 6.57452 16.3801 6.62202 16.3117 6.51608C16.1835 6.51466 16.1336 6.38212 15.9938 6.38303C15.5213 6.18832 15.0382 5.99703 14.5435 5.87522C14.2657 5.84715 13.9997 5.73563 13.7098 5.76143C13.3271 5.87072 13.4941 5.43404 13.4521 5.2061C13.4653 5.05805 13.3894 4.85626 13.5657 4.80289C13.6814 4.71214 13.8805 4.66578 13.9937 4.53442C14.3265 4.27621 14.5604 3.88302 14.5797 3.45983C14.7013 3.27378 14.5185 3.04175 14.5543 2.83368C14.5273 2.70225 14.4438 2.60793 14.4122 2.4768C13.9728 1.79566 13.0091 1.44744 12.2766 1.87011C11.9592 2.0493 11.6262 2.31059 11.5219 2.66724C11.4009 2.86464 11.4555 3.12711 11.3839 3.34604C11.4687 3.51553 11.4122 3.73117 11.5205 3.89257C11.6475 4.26071 11.9883 4.55475 12.3287 4.74383C12.4276 4.74992 12.4879 4.84057 12.5524 4.88735C12.5698 5.17561 12.544 5.46478 12.5423 5.75323C12.2203 5.74516 11.9023 5.78622 11.5979 5.87077C11.229 5.88319 10.8853 6.05554 10.5439 6.18113C10.3078 6.25543 10.0654 6.35617 9.83594 6.44674C9.79366 6.53936 9.64033 6.49382 9.59769 6.59836C9.43782 6.58934 9.39093 6.7648 9.23231 6.78357C8.84707 6.99468 8.52554 7.30147 8.16997 7.55966C7.60791 7.0503 7.05896 6.51284 6.56445 5.94347C6.7433 5.61296 6.99009 5.29526 7.10733 4.94563C7.2405 4.81243 7.16379 4.58736 7.26399 4.42952C7.37794 3.83774 7.35398 3.21145 7.18852 2.6379C7.20716 2.48795 7.06107 2.43801 7.06347 2.29673C6.79089 1.72655 6.39796 1.19346 5.90413 0.796507C5.72875 0.71328 5.61057 0.541039 5.40827 0.484076C5.00187 0.2953 4.56852 0.134854 4.1301 0.0696088C3.97025 -0.0165544 3.76039 0.0145487 3.58514 0.00530515C3.54177 -0.00156494 3.50028 -0.001328 3.46 0.00352718ZM3.72235 0.883431C4.20685 0.847638 4.68343 0.995011 5.10068 1.23221C5.17936 1.35115 5.36584 1.34346 5.45667 1.47105C5.86537 1.79693 6.17913 2.23857 6.36828 2.71841C6.42241 2.82251 6.42124 2.96158 6.4796 3.06936C6.49788 3.50509 6.54388 3.96798 6.45313 4.39129C6.3876 4.62741 6.31046 4.86684 6.17794 5.07947C5.6776 5.93175 4.72947 6.57934 3.71593 6.50037C3.42232 6.50027 3.1175 6.52217 2.84807 6.40614C2.71895 6.39881 2.62717 6.29619 2.49663 6.27388C2.03228 6.02308 1.5614 5.68654 1.3196 5.20462C1.23201 5.07217 1.11993 4.9452 1.07829 4.77445C0.816693 4.22807 0.863125 3.59877 0.935854 3.01543C1.02739 2.71744 1.17402 2.43342 1.32039 2.16575C1.51893 1.82344 1.82743 1.53286 2.15733 1.32042C2.52428 1.14151 2.90332 0.896639 3.33445 0.895976C3.46351 0.887048 3.59301 0.884112 3.72235 0.883431ZM3.71632 1.29089C3.68845 1.29005 3.66065 1.29033 3.63295 1.29158C2.9555 1.30091 2.37545 2.0202 2.52764 2.67909C2.56278 2.87736 2.77303 3.20278 2.48951 3.3089C1.98796 3.69773 1.68279 4.32689 1.68221 4.95916C1.73781 5.20198 1.80086 5.45021 2.01005 5.61504C2.12489 5.76174 2.30767 5.85045 2.45731 5.91562C2.58861 6.00579 2.76107 5.95401 2.88808 6.04975C3.13081 6.09103 3.39211 6.04023 3.61271 6.15475C3.97785 6.10122 4.36803 6.10544 4.72266 5.97577C4.88527 5.99414 4.962 5.85647 5.11234 5.84124C5.55076 5.57376 5.82056 5.03084 5.66064 4.52355C5.55072 3.99591 5.22434 3.52884 4.78963 3.22365C4.70347 3.08435 4.79648 3.0053 4.84998 2.8963C4.81728 2.71832 4.98434 2.56882 4.93957 2.40035C4.8146 2.26522 4.90317 2.03011 4.75832 1.91683C4.56386 1.54656 4.13441 1.30335 3.71632 1.29089ZM3.73953 2.08584C4.1484 2.08114 4.23223 2.81147 3.80611 2.86331C3.51731 2.9463 3.22071 2.67875 3.31361 2.38237C3.34555 2.19806 3.51854 2.0842 3.69894 2.08871C3.7128 2.08698 3.72635 2.08599 3.73953 2.08584ZM12.8445 2.52965C12.884 2.52729 12.9251 2.52827 12.968 2.53251L13.0033 2.53212H13.0042C13.174 2.5232 13.3348 2.53184 13.4637 2.63148C13.7132 2.78156 13.8271 3.05593 13.7769 3.3412C13.8713 3.64788 13.6048 3.80497 13.4218 3.99678C13.2172 4.13842 12.8115 4.11228 12.5987 4.00893C12.4191 3.81318 12.1377 3.65974 12.2315 3.35078C12.1871 3.07273 12.2795 2.79893 12.5236 2.64571C12.6208 2.57408 12.7258 2.53673 12.8445 2.52965ZM22.3143 2.53202C22.6101 2.52812 22.9073 2.52924 23.1825 2.62813C23.3074 2.61935 23.3671 2.75093 23.5015 2.7512C24.2366 3.04724 24.7284 3.72152 25.0088 4.43851C25.1907 4.92637 25.1223 5.47213 25.0828 5.98041C24.9581 6.39314 24.7405 6.77839 24.4955 7.12494C24.1867 7.497 23.783 7.80976 23.3189 7.94815C23.2349 8.05914 23.0355 7.97386 22.9331 8.07893C22.504 8.09949 22.039 8.13953 21.616 8.05364C21.4879 7.98793 21.343 8.02726 21.2468 7.91387C20.8324 7.79853 20.4851 7.49527 20.1777 7.20278C20.0516 6.95872 19.8335 6.76572 19.7321 6.49889C19.6205 6.30691 19.5933 6.08648 19.5251 5.88578C19.5128 5.47594 19.4623 5.03632 19.5575 4.63853C19.6468 4.2398 19.8441 3.85651 20.1187 3.55031C20.2538 3.25544 20.5852 3.09626 20.8359 2.90608C20.9794 2.78284 21.1778 2.76098 21.3266 2.66685C21.411 2.59973 21.5714 2.63348 21.6695 2.55869C21.8833 2.53334 22.0994 2.5341 22.3143 2.53202ZM22.2842 2.88336C21.8664 2.93727 21.407 3.16273 21.2308 3.55376C21.0939 3.68553 21.1667 3.91617 21.0543 4.07204C21.0686 4.24293 21.169 4.397 21.1671 4.57521C21.2888 4.68275 21.2516 4.86646 21.0953 4.92834C20.8017 5.17924 20.5368 5.49423 20.4232 5.86257C20.2307 6.31974 20.2438 6.89222 20.6204 7.25463C20.7245 7.40455 20.8996 7.46464 21.0557 7.51303C21.1713 7.59492 21.3222 7.5651 21.4364 7.64964C21.8397 7.67053 22.2234 7.80006 22.6314 7.71385C22.8845 7.7145 23.1273 7.64298 23.3593 7.57507C23.5133 7.57882 23.6167 7.46532 23.7617 7.43895C24.0208 7.26492 24.2597 7.01949 24.3017 6.70089C24.4028 6.3664 24.2198 6.01455 24.1397 5.6909C23.9646 5.3268 23.6318 5.04319 23.3411 4.75538C23.6782 4.16811 23.4905 3.28546 22.8226 3.0261C22.6518 2.95653 22.4724 2.87723 22.2842 2.88336ZM22.4018 3.73591C22.7614 3.73946 22.8132 4.40335 22.4471 4.46113C22.229 4.49879 21.9045 4.43866 21.9309 4.14988C21.8817 3.92197 22.0577 3.70856 22.2961 3.7447L22.3249 3.74439H22.3259C22.3525 3.73839 22.3779 3.73567 22.4018 3.73591ZM3.57596 3.73729C3.61504 3.73729 3.6544 3.73966 3.694 3.7444C4.15929 3.70339 4.62422 3.95344 4.79101 4.40314C4.94692 4.65198 4.98059 5.11283 4.61885 5.18901C4.40362 5.21777 4.20722 5.31972 3.9767 5.28631C3.60281 5.27689 3.20144 5.33733 2.85519 5.19296C2.68026 5.17121 2.46618 5.07561 2.53377 4.85712C2.47842 4.2554 2.9898 3.73722 3.57596 3.73729ZM22.1949 5.33866C22.2356 5.33794 22.2766 5.33977 22.318 5.34449C23.0087 5.27476 23.6289 5.99239 23.4508 6.66019C23.3426 6.74891 23.2304 6.81171 23.081 6.81102C22.7268 6.95541 22.311 6.86512 21.9335 6.88303C21.7198 6.90917 21.5328 6.79109 21.3357 6.7726C21.2698 6.67388 21.0853 6.73283 21.1185 6.55183C21.064 5.95187 21.5844 5.34941 22.1949 5.33866ZM12.5658 6.56823C13.2124 6.59898 13.878 6.5423 14.5005 6.68568C14.7316 6.79088 15.0024 6.79835 15.2319 6.92393C15.6286 7.10687 16.0805 7.23628 16.4115 7.51362C16.5716 7.61268 16.774 7.67434 16.9119 7.82665C17.4652 8.31665 18.0405 8.82114 18.4254 9.45854C18.4573 9.62254 18.6376 9.69958 18.6804 9.87281C18.9323 10.3837 19.1729 10.9213 19.3017 11.4773C19.3937 11.641 19.3299 11.8615 19.4226 12.031C19.4543 12.6894 19.479 13.3797 19.4082 14.0332C19.3197 14.2251 19.385 14.4529 19.2618 14.6311C19.1754 15.254 18.8061 15.7996 18.5482 16.361C18.4555 16.4118 18.4424 16.5242 18.41 16.6017C18.3027 16.696 18.352 16.8624 18.2605 16.9694C18.1992 17.1887 18.2545 17.4047 18.3526 17.5956C18.4605 17.9943 18.8864 18.1962 19.1254 18.5103C21.1228 20.5187 23.124 22.5232 25.1236 24.5294C25.1687 24.7718 25.0984 25.1417 24.7813 25.1213C24.4152 25.1772 24.2568 24.7646 24.0022 24.5837C21.9527 22.5783 19.9681 20.5055 17.8802 18.5399C17.7213 18.382 17.5089 18.3016 17.3021 18.243C17.1151 18.2034 16.9432 18.2749 16.7805 18.3337C16.6408 18.3236 16.5933 18.4621 16.4565 18.4535C16.1812 18.7132 15.7729 18.8135 15.44 18.9989C15.1555 19.1442 14.8469 19.2329 14.5392 19.294C14.3755 19.3973 14.1484 19.3253 13.9761 19.4213C13.3176 19.4529 12.6274 19.4777 11.9739 19.4068C11.782 19.3183 11.5542 19.3837 11.376 19.2605C10.7752 19.1402 10.2168 18.8502 9.6778 18.5711C9.57237 18.4175 9.37114 18.4187 9.23627 18.287C8.6271 17.7891 8.03478 17.2408 7.59845 16.5819C7.56676 16.3987 7.3799 16.3185 7.32889 16.1333C7.07869 15.6193 6.82945 15.0852 6.70728 14.5261C6.55394 14.1519 6.62325 13.7243 6.58342 13.3214C6.59149 12.8069 6.50512 12.273 6.65098 11.776C6.62543 11.559 6.77098 11.3976 6.77998 11.1846C6.93728 10.6252 7.20623 10.0951 7.50273 9.60236C7.61637 9.48508 7.6306 9.28577 7.772 9.17189C8.27759 8.58658 8.80491 7.99255 9.46365 7.58119C9.6308 7.53928 9.73156 7.36594 9.91111 7.31982C10.4048 7.05859 10.9207 6.81823 11.4692 6.71165C11.6347 6.61147 11.8625 6.67663 12.0379 6.58265C12.2133 6.56642 12.3899 6.56921 12.5658 6.56823ZM13.1566 7.35775C13.0819 7.35614 13.007 7.35618 12.932 7.35796C12.3759 7.35973 11.8331 7.47545 11.301 7.61359C10.8576 7.7619 10.4201 7.97235 10.0233 8.20032C9.89342 8.2712 9.77912 8.36181 9.64451 8.45033C9.12114 8.91342 8.58699 9.39759 8.21403 9.99312C8.11514 10.2115 7.94814 10.4203 7.86613 10.6586C7.84524 10.8191 7.6855 10.8892 7.70928 11.0655C7.60199 11.1904 7.63876 11.3679 7.54007 11.498C7.34717 12.3437 7.30225 13.2221 7.46362 14.0776C7.46697 14.2998 7.54745 14.5068 7.6188 14.703C7.62842 14.8525 7.74156 14.9562 7.73782 15.1111C7.89002 15.286 7.92665 15.5576 8.06981 15.7575C8.46961 16.5482 9.16249 17.1372 9.83357 17.6928C10.1552 17.8673 10.4678 18.0934 10.8248 18.1996C10.9015 18.3363 11.0961 18.2588 11.1961 18.3714C11.3786 18.3702 11.5069 18.5162 11.6967 18.4929C12.6174 18.7556 13.5894 18.6505 14.5134 18.4657C14.6435 18.3678 14.8213 18.4032 14.9443 18.2937C15.3018 18.2297 15.6168 18.0106 15.9339 17.8496C16.1482 17.711 16.3979 17.549 16.5891 17.3539C17.0196 16.9294 17.5058 16.5254 17.8013 15.9914C17.9413 15.7404 18.1196 15.4669 18.2009 15.1826C18.3451 15.0752 18.2888 14.847 18.3907 14.7003C18.7734 13.5018 18.7266 12.1827 18.2934 11.0065C18.3047 10.855 18.1428 10.8102 18.1416 10.657C18.0057 10.3368 17.8221 10.0537 17.6415 9.76455C17.4867 9.55306 17.2308 9.20246 16.939 9.41795C16.6758 9.58534 16.7327 9.94932 16.9421 10.1369C17.0725 10.2532 17.1144 10.4463 17.2198 10.5578C17.2199 10.6852 17.3476 10.7269 17.342 10.8559C17.445 10.9168 17.402 11.0644 17.508 11.1247C17.5043 11.2953 17.6356 11.4114 17.631 11.5837C17.7683 11.8255 17.7678 12.1313 17.8261 12.4021C17.8555 13.0437 17.8848 13.7143 17.6631 14.3192C17.5728 14.5067 17.6083 14.7382 17.4581 14.9097C17.4296 15.0242 17.4059 15.1017 17.3278 15.1833C17.3101 15.3446 17.1585 15.4568 17.1127 15.6207C16.989 15.7279 16.9465 15.9216 16.8099 16.0361C16.3919 16.5308 15.9025 16.988 15.3182 17.2647C15.2747 17.3543 15.1147 17.3002 15.0843 17.4124C14.8418 17.4446 14.6482 17.6348 14.3945 17.623C14.032 17.8073 13.6004 17.8247 13.1975 17.8408C12.6416 17.8521 12.0622 17.8359 11.5539 17.6102C11.325 17.6165 11.1168 17.4373 10.912 17.3955C10.8377 17.2939 10.7015 17.3344 10.6329 17.2238C9.94564 16.9069 9.40212 16.3168 8.967 15.7203C8.85597 15.5766 8.80706 15.3762 8.69161 15.254C8.69688 15.1224 8.5544 15.0926 8.56883 14.9583C8.44585 14.7678 8.41064 14.5531 8.3614 14.3412C8.21175 14.0322 8.19254 13.6558 8.16908 13.3125C8.15718 12.7708 8.14863 12.1872 8.35261 11.6771C8.41905 11.535 8.39113 11.3723 8.48803 11.2433C8.47301 11.1082 8.60594 11.0354 8.6116 10.9107C8.71231 10.8395 8.6735 10.7068 8.77478 10.6369C8.77352 10.516 8.88726 10.4721 8.91346 10.3543C9.3153 9.77807 9.81762 9.24853 10.4186 8.88307C10.5152 8.8473 10.5475 8.76147 10.6633 8.76207C10.7191 8.65591 10.879 8.70947 10.9241 8.59326C11.1666 8.56113 11.3602 8.37088 11.6139 8.38267C11.9764 8.19839 12.408 8.18099 12.8109 8.16486C13.3604 8.15634 13.9347 8.16502 14.4377 8.39116C14.6094 8.37639 14.7422 8.5056 14.9024 8.51325C14.9734 8.61403 15.1062 8.575 15.176 8.67633C15.3006 8.67578 15.3633 8.80669 15.4915 8.80128C15.6855 9.04043 16.1143 9.00205 16.2041 8.6867C16.3263 8.46209 16.0995 8.25026 15.9186 8.16753C15.6958 8.00378 15.4094 7.90249 15.1761 7.78872C15.0496 7.67319 14.8447 7.70797 14.6961 7.61448C14.1945 7.46177 13.6796 7.36907 13.1566 7.35775ZM12.9774 8.92761C12.8224 8.96996 12.688 9.05162 12.5157 9.0335C12.3898 9.08603 12.285 9.13839 12.162 9.21071C11.906 9.41674 11.632 9.67317 11.5134 9.96773C11.407 10.1306 11.4708 10.3545 11.3563 10.5213C11.3736 10.7033 11.4801 10.871 11.4592 11.0651C11.4973 11.1889 11.5729 11.2643 11.6212 11.3892C11.7335 11.4673 11.8015 11.6627 11.6162 11.6968C11.1449 11.9468 10.7252 12.3218 10.3844 12.7447C10.2807 12.937 10.1194 13.1046 10.0555 13.3314C9.76732 14.1264 9.59455 15.0514 9.92346 15.86C10.0622 16.1356 10.3075 16.3915 10.5974 16.4966C10.6621 16.5561 10.7649 16.5983 10.8621 16.6174C10.9646 16.714 11.1147 16.6661 11.2074 16.7713C11.4212 16.7781 11.5926 16.9171 11.8156 16.8924C12.1238 17.0662 12.5231 16.9439 12.8617 17.0502C13.2829 17.0311 13.7179 17.0255 14.1288 16.923C14.2731 16.8522 14.4748 16.9089 14.6094 16.7952C14.743 16.8188 14.845 16.7357 14.944 16.6912C15.0896 16.6857 15.1879 16.5755 15.3316 16.5614C15.4145 16.4592 15.5857 16.4736 15.6727 16.3435C16.3257 15.8851 16.3093 14.9709 16.2051 14.2645C16.1226 13.7583 15.9721 13.2169 15.6643 12.8159C15.3935 12.4299 15.0317 12.0874 14.6283 11.843C14.537 11.7408 14.3534 11.7175 14.2695 11.6063C14.2673 11.5232 14.3724 11.4697 14.3866 11.3933C14.4821 11.3048 14.464 11.1603 14.5422 11.057C14.545 10.8892 14.5871 10.7354 14.6484 10.5875C14.5662 10.3939 14.5865 10.1717 14.5085 9.98107C14.4369 9.91917 14.4525 9.78208 14.3587 9.73166C14.1858 9.46324 13.9075 9.21578 13.6227 9.0987C13.4753 8.96848 13.2418 9.06586 13.089 8.9364C13.0525 8.92781 13.0148 8.92495 12.9774 8.92761ZM13.1292 9.80307C13.2514 9.80686 13.3645 9.8323 13.462 9.90333C13.8379 10.1307 13.8415 10.6565 13.6878 11.0187C13.4738 11.4247 12.9244 11.416 12.5572 11.255C12.2011 11.0542 12.1841 10.5604 12.269 10.2232C12.3514 10.0709 12.4737 9.9214 12.641 9.85463C12.7173 9.77325 12.9003 9.82779 13.0042 9.80564C13.0467 9.80296 13.0884 9.80181 13.1292 9.80307ZM3.40241 12.2108C3.6434 12.1942 3.80523 12.3686 3.96386 12.5509C4.17806 12.7395 4.07013 13.1338 4.04456 13.3741C3.83369 13.5562 3.67899 13.8735 3.35213 13.7756C3.07409 13.82 2.80028 13.7276 2.64706 13.4835C2.55156 13.3538 2.5169 13.2104 2.53387 13.0391C2.52932 12.8628 2.52192 12.683 2.62998 12.5484C2.78454 12.3134 3.00398 12.1827 3.29405 12.2301C3.33193 12.2194 3.36798 12.2131 3.40241 12.2108ZM13.0042 12.2301C13.2689 12.2373 13.5407 12.2092 13.78 12.326C14.1072 12.4002 14.3871 12.6128 14.6406 12.8189C14.8055 12.969 14.9561 13.1424 15.0539 13.3374C15.2324 13.5532 15.2801 13.8416 15.3777 14.0901C15.3916 14.5915 15.4487 15.1112 15.3507 15.5978C15.0568 15.7987 14.7312 15.9946 14.3723 16.0324C14.2208 16.1459 14.001 16.0759 13.8439 16.1766C13.2672 16.1997 12.671 16.2314 12.1032 16.1589C11.9421 16.0661 11.7363 16.1325 11.5838 16.0158C11.2408 15.9934 10.9382 15.7783 10.6574 15.5975C10.5632 15.0934 10.6165 14.5626 10.6402 14.0528C10.7432 13.7865 10.8099 13.4824 11.0081 13.2615C11.1218 13.0182 11.3495 12.8215 11.5628 12.6615C11.7977 12.5013 12.0485 12.3456 12.3328 12.2945C12.525 12.1896 12.7899 12.256 13.0042 12.2301ZM22.5413 14.6363C22.5772 14.6367 22.6154 14.6424 22.6563 14.6546H22.7048H22.7144C23.0241 14.5892 23.3019 14.7949 23.4238 15.0617C23.5223 15.2573 23.4641 15.537 23.4553 15.7609C23.3175 15.9797 23.1081 16.2622 22.7966 16.1973C22.4609 16.2361 22.0857 16.1032 21.9684 15.7581C21.9167 15.5324 21.8999 15.2658 21.9639 15.0562C22.1484 14.8968 22.2898 14.6339 22.5413 14.6363ZM3.7344 18.6794C4.2172 18.6448 4.69747 18.8123 5.1067 19.0449C5.22197 19.1413 5.3941 19.1755 5.49944 19.3048C5.88865 19.6236 6.17966 20.0587 6.36878 20.5149C6.42078 20.6359 6.41482 20.7899 6.4795 20.9117C6.49888 21.3314 6.54333 21.779 6.45313 22.1872C6.38809 22.3914 6.35531 22.6095 6.21883 22.7918C5.86638 23.446 5.26147 23.9956 4.54249 24.2011C4.34821 24.2738 4.14403 24.3077 3.9282 24.2953C3.57448 24.2821 3.19185 24.3477 2.86536 24.202C2.28945 24.0697 1.81479 23.6468 1.42855 23.2195C1.31173 23.1103 1.33441 22.9376 1.20334 22.8494C0.940957 22.378 0.839754 21.8411 0.888639 21.3054C0.85955 20.8039 1.10684 20.3416 1.35398 19.928C1.52301 19.6579 1.76543 19.3986 2.03139 19.2113C2.23267 19.0865 2.44423 18.9439 2.68381 18.8912C2.93476 18.6723 3.33531 18.7221 3.64234 18.6804C3.67303 18.6805 3.70371 18.6793 3.7344 18.6794ZM3.66427 19.0831C3.00638 19.1041 2.42962 19.7463 2.50868 20.401C2.52948 20.598 2.70364 20.8308 2.60419 21.0202C2.30662 21.2096 2.09896 21.5151 1.90752 21.7937C1.83295 21.8922 1.84325 22.0229 1.76716 22.1241C1.74939 22.4354 1.59479 22.7557 1.77012 23.0552C1.89505 23.3348 2.11143 23.6632 2.43993 23.6873C2.54704 23.815 2.74575 23.75 2.87623 23.8453C3.13697 23.8709 3.39943 23.8747 3.65024 23.9459C4.00849 23.8942 4.38393 23.8987 4.72266 23.7716C4.88201 23.798 4.95074 23.6456 5.10147 23.6532C5.61449 23.3994 5.82135 22.7346 5.62874 22.2091C5.53968 21.8906 5.39733 21.5889 5.15422 21.3503C5.05932 21.2093 4.89799 21.1239 4.78617 21.0109C4.6692 20.8344 4.88764 20.7626 4.86085 20.5939C4.83973 20.4338 5.05202 20.267 4.89088 20.1289C4.85485 19.983 4.8681 19.8078 4.75427 19.7056C4.52432 19.3419 4.10153 19.0787 3.66427 19.0831ZM3.71968 19.8943C3.75047 19.8932 3.78117 19.894 3.81115 19.8965C4.18704 19.9674 4.18818 20.6828 3.7582 20.6598C3.51279 20.7097 3.26267 20.5218 3.30966 20.2597C3.28624 20.0046 3.50418 19.9023 3.71968 19.8943ZM3.79218 21.5289C4.27183 21.5335 4.70409 21.8675 4.84267 22.3297C4.97828 22.5897 4.90251 23.04 4.52797 22.9903C4.12824 23.1494 3.66778 23.0679 3.2416 23.0753C3.03639 23.0806 2.86475 22.9771 2.66514 22.9479C2.4406 22.8425 2.55111 22.5266 2.563 22.3331C2.67627 21.8241 3.19059 21.4919 3.69568 21.5324C3.728 21.5298 3.76021 21.5286 3.79218 21.5289ZM14.4552 21.9282C14.5113 21.9218 14.5699 21.9221 14.6306 21.9298C14.9146 21.8861 15.1614 22.0379 15.3031 22.2774C15.5208 22.6385 15.4216 23.1432 15.0681 23.3829C14.8687 23.5759 14.527 23.4256 14.2675 23.4736C14.0796 23.2642 13.7565 23.0809 13.8317 22.7489C13.7966 22.3422 14.063 21.973 14.4552 21.9282Z" fill="#085E99"/>
</g>
<defs>
<clipPath id="clip0_43_458">
<rect width="26.0089" height="26" fill="white"/>
</clipPath>
</defs>
</svg>
